<svg width="100" height="100" viewBox="0 0 100 100" fill="none" xmlns="http://www.w3.org/2000/svg">
<path d="M50 5.20842C74.7084 5.20842 94.7917 25.2917 94.7917 50.0001C94.7917 74.7084 74.7084 94.7917 50 94.7917C25.2917 94.7917 5.20836 74.7084 5.20836 50.0001C5.20836 25.2917 25.2917 5.20841 50 5.20842ZM50 88.5417C71.25 88.5417 88.5417 71.2501 88.5417 50.0001C88.5417 28.7501 71.25 11.4584 50 11.4584C28.75 11.4584 11.4584 28.7501 11.4584 50.0001C11.4584 71.2501 28.75 88.5417 50 88.5417Z" fill="#0D6EFD"/>
<path d="M50 42.7084C51.7083 42.7084 53.125 44.1251 53.125 45.8334L53.125 66.6667C53.125 68.3751 51.7083 69.7917 50 69.7917C48.2917 69.7917 46.875 68.3751 46.875 66.6667L46.875 45.8334C46.875 44.1251 48.2917 42.7084 50 42.7084Z" fill="#0D6EFD"/>
<path d="M50 29.1672C50.5417 29.1672 51.0834 29.2922 51.5834 29.5006C52.0834 29.7089 52.5417 30.0006 52.9584 30.3756C53.3334 30.7922 53.625 31.2089 53.8334 31.7506C54.0417 32.2506 54.1667 32.7922 54.1667 33.3339C54.1667 33.8756 54.0417 34.4172 53.8334 34.9172C53.625 35.4172 53.3334 35.8756 52.9584 36.2922C52.5417 36.6672 52.0834 36.9589 51.5834 37.1672C50.5834 37.5839 49.4167 37.5839 48.4167 37.1672C47.9167 36.9589 47.4584 36.6672 47.0417 36.2922C46.6667 35.8756 46.375 35.4172 46.1667 34.9172C45.9584 34.4172 45.8334 33.8756 45.8334 33.3339C45.8334 32.7922 45.9584 32.2506 46.1667 31.7506C46.375 31.2089 46.6667 30.7922 47.0417 30.3756C47.4584 30.0006 47.9167 29.7089 48.4167 29.5006C48.9167 29.2922 49.4584 29.1672 50 29.1672Z" fill="#0D6EFD"/>
</svg>
