<svg width="26" height="27" viewBox="0 0 26 27" fill="none" xmlns="http://www.w3.org/2000/svg">
<path d="M8.66667 6.72925C8.2225 6.72925 7.85417 6.36091 7.85417 5.91675V2.66675C7.85417 2.22258 8.2225 1.85425 8.66667 1.85425C9.11083 1.85425 9.47917 2.22258 9.47917 2.66675V5.91675C9.47917 6.36091 9.11083 6.72925 8.66667 6.72925Z" fill="#222222"/>
<path d="M17.3333 6.72925C16.8892 6.72925 16.5208 6.36091 16.5208 5.91675V2.66675C16.5208 2.22258 16.8892 1.85425 17.3333 1.85425C17.7775 1.85425 18.1458 2.22258 18.1458 2.66675V5.91675C18.1458 6.36091 17.7775 6.72925 17.3333 6.72925Z" fill="#222222"/>
<path d="M9.20833 16.2084C9.0675 16.2084 8.92667 16.1759 8.79667 16.1218C8.65583 16.0676 8.5475 15.9917 8.43917 15.8942C8.24417 15.6884 8.125 15.4176 8.125 15.1251C8.125 14.9843 8.1575 14.8434 8.21167 14.7134C8.26584 14.5834 8.34167 14.4643 8.43917 14.3559C8.5475 14.2584 8.65583 14.1826 8.79667 14.1284C9.18667 13.9659 9.67417 14.0526 9.9775 14.3559C10.1725 14.5618 10.2917 14.8434 10.2917 15.1251C10.2917 15.1901 10.2808 15.2659 10.27 15.3418C10.2592 15.4068 10.2375 15.4718 10.205 15.5368C10.1833 15.6018 10.1508 15.6668 10.1075 15.7318C10.075 15.7859 10.0208 15.8401 9.9775 15.8942C9.77167 16.0892 9.49 16.2084 9.20833 16.2084Z" fill="#222222"/>
<path d="M13 16.2084C12.8592 16.2084 12.7183 16.1759 12.5883 16.1218C12.4475 16.0676 12.3392 15.9917 12.2308 15.8942C12.0358 15.6884 11.9167 15.4176 11.9167 15.1251C11.9167 14.9842 11.9492 14.8434 12.0033 14.7134C12.0575 14.5834 12.1333 14.4643 12.2308 14.3559C12.3392 14.2584 12.4475 14.1826 12.5883 14.1284C12.9783 13.9551 13.4658 14.0526 13.7692 14.3559C13.9642 14.5618 14.0833 14.8434 14.0833 15.1251C14.0833 15.1901 14.0725 15.2659 14.0617 15.3418C14.0508 15.4068 14.0292 15.4717 13.9967 15.5367C13.975 15.6017 13.9425 15.6667 13.8992 15.7317C13.8667 15.7859 13.8125 15.8401 13.7692 15.8942C13.5633 16.0892 13.2817 16.2084 13 16.2084Z" fill="#222222"/>
<path d="M16.7917 16.2084C16.6508 16.2084 16.51 16.1759 16.38 16.1218C16.2392 16.0676 16.1308 15.9917 16.0225 15.8942C15.9792 15.8401 15.9358 15.7859 15.8925 15.7317C15.8492 15.6667 15.8167 15.6017 15.795 15.5367C15.7625 15.4717 15.7408 15.4068 15.73 15.3418C15.7192 15.2659 15.7083 15.1901 15.7083 15.1251C15.7083 14.8434 15.8275 14.5618 16.0225 14.3559C16.1308 14.2584 16.2392 14.1826 16.38 14.1284C16.7808 13.9551 17.2575 14.0526 17.5608 14.3559C17.7558 14.5618 17.875 14.8434 17.875 15.1251C17.875 15.1901 17.8642 15.2659 17.8533 15.3418C17.8425 15.4068 17.8208 15.4717 17.7883 15.5367C17.7667 15.6017 17.7342 15.6667 17.6908 15.7317C17.6583 15.7859 17.6042 15.8401 17.5608 15.8942C17.355 16.0892 17.0733 16.2084 16.7917 16.2084Z" fill="#222222"/>
<path d="M9.20833 20.0001C9.0675 20.0001 8.92667 19.9676 8.79667 19.9134C8.66667 19.8593 8.5475 19.7834 8.43917 19.6859C8.24417 19.4801 8.125 19.1984 8.125 18.9168C8.125 18.7759 8.1575 18.6351 8.21167 18.5051C8.26584 18.3642 8.34167 18.2451 8.43917 18.1476C8.84 17.7468 9.57667 17.7468 9.9775 18.1476C10.1725 18.3534 10.2917 18.6351 10.2917 18.9168C10.2917 19.1984 10.1725 19.4801 9.9775 19.6859C9.77167 19.8809 9.49 20.0001 9.20833 20.0001Z" fill="#222222"/>
<path d="M13 20.0001C12.7183 20.0001 12.4367 19.8809 12.2308 19.6859C12.0358 19.4801 11.9167 19.1984 11.9167 18.9168C11.9167 18.7759 11.9492 18.6351 12.0033 18.5051C12.0575 18.3642 12.1333 18.2451 12.2308 18.1476C12.6317 17.7468 13.3683 17.7468 13.7692 18.1476C13.8667 18.2451 13.9425 18.3642 13.9967 18.5051C14.0508 18.6351 14.0833 18.7759 14.0833 18.9168C14.0833 19.1984 13.9642 19.4801 13.7692 19.6859C13.5633 19.8809 13.2817 20.0001 13 20.0001Z" fill="#222222"/>
<path d="M16.7917 20.0001C16.51 20.0001 16.2283 19.8809 16.0225 19.6859C15.925 19.5884 15.8492 19.4693 15.795 19.3285C15.7408 19.1985 15.7083 19.0576 15.7083 18.9168C15.7083 18.776 15.7408 18.6351 15.795 18.5051C15.8492 18.3643 15.925 18.2451 16.0225 18.1476C16.2717 17.8985 16.6508 17.7793 16.9975 17.8551C17.0733 17.8659 17.1383 17.8876 17.2033 17.9201C17.2683 17.9418 17.3333 17.9743 17.3983 18.0176C17.4525 18.0501 17.5067 18.1043 17.5608 18.1476C17.7558 18.3535 17.875 18.6351 17.875 18.9168C17.875 19.1985 17.7558 19.4801 17.5608 19.6859C17.355 19.8809 17.0733 20.0001 16.7917 20.0001Z" fill="#222222"/>
<path d="M22.2083 11.16H3.79167C3.3475 11.16 2.97917 10.7917 2.97917 10.3475C2.97917 9.90338 3.3475 9.53504 3.79167 9.53504H22.2083C22.6525 9.53504 23.0208 9.90338 23.0208 10.3475C23.0208 10.7917 22.6525 11.16 22.2083 11.16Z" fill="#222222"/>
<path d="M17.3333 25.1459H8.66667C4.7125 25.1459 2.4375 22.8709 2.4375 18.9167V9.70841C2.4375 5.75425 4.7125 3.47925 8.66667 3.47925H17.3333C21.2875 3.47925 23.5625 5.75425 23.5625 9.70841V18.9167C23.5625 22.8709 21.2875 25.1459 17.3333 25.1459ZM8.66667 5.10425C5.56833 5.10425 4.0625 6.61008 4.0625 9.70841V18.9167C4.0625 22.0151 5.56833 23.5209 8.66667 23.5209H17.3333C20.4317 23.5209 21.9375 22.0151 21.9375 18.9167V9.70841C21.9375 6.61008 20.4317 5.10425 17.3333 5.10425H8.66667Z" fill="#222222"/>
</svg>
