<svg width="100" height="100" viewBox="0 0 100 100" fill="none" xmlns="http://www.w3.org/2000/svg">
<path d="M54.1657 61.4582H49.999C48.2907 61.4582 46.874 60.0416 46.874 58.3332C46.874 56.6249 48.2907 55.2083 49.999 55.2083H54.1657C57.0407 55.2083 59.374 52.8749 59.374 49.9999V11.4583H24.999C20.0824 11.4583 15.5823 14.1248 13.1656 18.4165C12.3323 19.9165 10.4158 20.4583 8.91576 19.625C7.41576 18.7917 6.87393 16.8749 7.70726 15.3749C11.2073 9.12493 17.8324 5.20825 24.999 5.20825H62.499C64.2074 5.20825 65.624 6.62492 65.624 8.33325V49.9999C65.624 56.3332 60.499 61.4582 54.1657 61.4582Z" fill="#0D6EFD"/>
<path d="M79.1667 86.4583H75C73.2917 86.4583 71.875 85.0416 71.875 83.3333C71.875 80.4582 69.5417 78.1249 66.6667 78.1249C63.7917 78.1249 61.4584 80.4582 61.4584 83.3333C61.4584 85.0416 60.0417 86.4583 58.3334 86.4583H41.6667C39.9584 86.4583 38.5417 85.0416 38.5417 83.3333C38.5417 80.4582 36.2084 78.1249 33.3334 78.1249C30.4584 78.1249 28.125 80.4582 28.125 83.3333C28.125 85.0416 26.7084 86.4583 25 86.4583H20.8334C12.2084 86.4583 5.20837 79.4582 5.20837 70.8332C5.20837 69.1249 6.62504 67.7083 8.33337 67.7083C10.0417 67.7083 11.4584 69.1249 11.4584 70.8332C11.4584 75.9999 15.6667 80.2082 20.8334 80.2082H22.2916C23.6666 75.4166 28.0834 71.8749 33.3334 71.8749C38.5834 71.8749 43.0001 75.4166 44.3751 80.2082H55.6666C57.0416 75.4166 61.4584 71.8749 66.7084 71.8749C71.9584 71.8749 76.3749 75.4166 77.7499 80.2082H79.1667C84.3334 80.2082 88.5417 75.9999 88.5417 70.8332V61.4583H79.1667C75.1667 61.4583 71.875 58.1666 71.875 54.1666V41.6666C71.875 37.6666 75.125 34.3749 79.1667 34.3749L74.7083 26.5833C73.7917 24.9583 72.0418 23.9583 70.1668 23.9583H65.625V49.9999C65.625 56.3333 60.5 61.4583 54.1667 61.4583H50C48.2917 61.4583 46.875 60.0416 46.875 58.3333C46.875 56.6249 48.2917 55.2083 50 55.2083H54.1667C57.0417 55.2083 59.375 52.8749 59.375 49.9999V20.8333C59.375 19.1249 60.7917 17.7083 62.5 17.7083H70.1668C74.2918 17.7083 78.0833 19.9166 80.125 23.5L87.25 35.9583C87.7917 36.9166 87.7917 38.1249 87.25 39.0833C86.7084 40.0416 85.6666 40.6249 84.5416 40.6249H79.1667C78.5834 40.6249 78.125 41.0833 78.125 41.6666V54.1666C78.125 54.7499 78.5834 55.2083 79.1667 55.2083H91.6667C93.375 55.2083 94.7917 56.6249 94.7917 58.3333V70.8332C94.7917 79.4582 87.7917 86.4583 79.1667 86.4583Z" fill="#0D6EFD"/>
<path d="M33.3333 94.7917C27 94.7917 21.875 89.6667 21.875 83.3333C21.875 77 27 71.875 33.3333 71.875C39.6667 71.875 44.7917 77 44.7917 83.3333C44.7917 89.6667 39.6667 94.7917 33.3333 94.7917ZM33.3333 78.125C30.4583 78.125 28.125 80.4583 28.125 83.3333C28.125 86.2083 30.4583 88.5417 33.3333 88.5417C36.2083 88.5417 38.5417 86.2083 38.5417 83.3333C38.5417 80.4583 36.2083 78.125 33.3333 78.125Z" fill="#0D6EFD"/>
<path d="M66.6667 94.7917C60.3334 94.7917 55.2084 89.6667 55.2084 83.3333C55.2084 77 60.3334 71.875 66.6667 71.875C73 71.875 78.125 77 78.125 83.3333C78.125 89.6667 73 94.7917 66.6667 94.7917ZM66.6667 78.125C63.7917 78.125 61.4584 80.4583 61.4584 83.3333C61.4584 86.2083 63.7917 88.5417 66.6667 88.5417C69.5417 88.5417 71.875 86.2083 71.875 83.3333C71.875 80.4583 69.5417 78.125 66.6667 78.125Z" fill="#0D6EFD"/>
<path d="M91.6667 61.4583H79.1667C75.1667 61.4583 71.875 58.1667 71.875 54.1667V41.6667C71.875 37.6667 75.1667 34.375 79.1667 34.375H84.5416C85.6666 34.375 86.7083 34.9584 87.25 35.9584L94.3751 48.4584C94.6251 48.9167 94.7917 49.4583 94.7917 50V58.3333C94.7917 60.0417 93.375 61.4583 91.6667 61.4583ZM79.1667 40.625C78.5833 40.625 78.125 41.0833 78.125 41.6667V54.1667C78.125 54.75 78.5833 55.2083 79.1667 55.2083H88.5417V50.8334L82.7082 40.625H79.1667Z" fill="#0D6EFD"/>
<path d="M33.3334 36.4583H8.33337C6.62504 36.4583 5.20837 35.0416 5.20837 33.3333C5.20837 31.6249 6.62504 30.2083 8.33337 30.2083H33.3334C35.0417 30.2083 36.4584 31.6249 36.4584 33.3333C36.4584 35.0416 35.0417 36.4583 33.3334 36.4583Z" fill="#0D6EFD"/>
<path d="M25 48.9583H8.33337C6.62504 48.9583 5.20837 47.5416 5.20837 45.8333C5.20837 44.1249 6.62504 42.7083 8.33337 42.7083H25C26.7084 42.7083 28.125 44.1249 28.125 45.8333C28.125 47.5416 26.7084 48.9583 25 48.9583Z" fill="#0D6EFD"/>
<path d="M16.6667 61.4583H8.33337C6.62504 61.4583 5.20837 60.0416 5.20837 58.3333C5.20837 56.6249 6.62504 55.2083 8.33337 55.2083H16.6667C18.375 55.2083 19.7917 56.6249 19.7917 58.3333C19.7917 60.0416 18.375 61.4583 16.6667 61.4583Z" fill="#0D6EFD"/>
</svg>
