<svg width="1425" height="705" viewBox="0 0 1425 705" fill="none" xmlns="http://www.w3.org/2000/svg">
<path d="M1424.29 69.4775C1395.23 120.171 1279.21 215.112 1047.64 189.329C758.162 157.1 656.676 212.493 647.14 374.141C637.604 535.789 564.044 634.49 280.02 598.233C-4.00494 561.975 -24.4384 663.194 -13.5406 773.477" stroke="#0D6EFD"/>
<path d="M821.791 15.4775C755.791 -7.52247 556.367 -125.88 431.791 137.478C374.791 257.977 119.291 55.9774 103.291 235.477C87.291 348.977 139.591 409.777 12.791 394.977C-114.009 380.177 -45.209 520.144 -13.709 561.977" stroke="#92BEFF"/>
<path d="M1418.33 68.9429C1388.9 118.907 1272.06 211.736 1041.54 188.815C754.366 158.099 651.355 210.944 641.755 372.768C632.156 533.94 559.842 632.265 277.374 596.22C-5.09407 560.175 -24.644 661.778 -13.5422 771.383" stroke="#0E6FFD"/>
<path d="M1412.36 68.4081C1382.57 117.642 1264.9 208.359 1035.44 188.302C750.57 159.097 646.034 209.394 636.371 371.395C626.707 532.09 555.639 630.04 274.728 594.208C-6.18324 558.375 -24.8497 660.361 -13.5439 769.289" stroke="#1070FD"/>
<path d="M1406.4 67.8735C1376.24 116.378 1257.74 204.983 1029.34 187.788C746.774 160.096 640.714 207.844 630.986 370.022C621.258 530.24 551.437 627.816 272.082 592.195C-7.27232 556.575 -25.0553 658.945 -13.5455 767.195" stroke="#1170FD"/>
<path d="M1400.43 67.3389C1369.91 115.114 1250.59 201.607 1023.25 187.275C742.979 161.095 635.393 206.295 625.601 368.65C615.81 528.391 547.234 625.591 269.436 590.183C-8.36152 554.775 -25.261 657.529 -13.5472 765.101" stroke="#1271FD"/>
<path d="M1394.46 66.8044C1363.57 113.85 1243.43 198.231 1017.15 186.762C739.183 162.094 630.072 204.745 620.217 367.277C610.361 526.541 543.032 623.366 266.791 588.171C-9.4506 552.975 -25.4666 656.113 -13.5488 763.007" stroke="#1472FD"/>
<path d="M1388.5 66.2695C1357.24 112.585 1236.27 194.855 1011.05 186.248C735.387 163.092 624.752 203.195 614.832 365.904C604.913 524.691 538.829 621.141 264.145 586.158C-10.5398 551.175 -25.6722 654.696 -13.5505 760.913" stroke="#1573FD"/>
<path d="M1382.53 65.7349C1350.91 111.321 1229.12 191.479 1004.95 185.735C731.591 164.091 619.431 201.646 609.448 364.531C599.464 522.842 534.627 618.916 261.499 584.146C-11.6289 549.375 -25.8778 653.28 -13.5521 758.819" stroke="#1674FD"/>
<path d="M1376.57 65.2003C1344.58 110.057 1221.96 188.103 998.855 185.222C727.796 165.09 614.111 200.096 604.063 363.158C594.015 520.992 530.424 616.691 258.853 582.133C-12.7181 547.575 -26.0835 651.864 -13.5538 756.725" stroke="#1874FD"/>
<path d="M1370.6 64.6658C1338.25 108.792 1214.8 184.726 992.758 184.708C724 166.089 608.79 198.546 598.678 361.785C588.567 519.143 526.222 614.466 256.207 580.121C-13.8071 545.776 -26.2891 650.447 -13.5554 754.631" stroke="#1975FD"/>
<path d="M1364.64 64.1309C1331.92 107.528 1207.64 181.35 986.661 184.195C720.204 167.088 603.469 196.997 593.294 360.412C583.118 517.293 522.019 612.241 253.561 578.108C-14.8963 543.975 -26.4948 649.031 -13.5571 752.537" stroke="#1A76FD"/>
<path d="M1358.67 63.5963C1325.59 106.264 1200.49 177.974 980.563 183.681C716.409 168.086 598.149 195.447 587.909 359.039C577.669 515.443 517.817 610.017 250.916 576.096C-15.9854 542.175 -26.7003 647.614 -13.5587 750.443" stroke="#1C77FD"/>
<path d="M1352.71 63.0618C1319.26 104.999 1193.33 174.598 974.466 183.168C712.613 169.085 592.828 193.897 582.524 357.666C572.221 513.594 513.614 607.792 248.27 574.084C-17.0746 540.376 -26.906 646.198 -13.5604 748.349" stroke="#1D78FD"/>
<path d="M1346.74 62.5272C1312.93 103.735 1186.17 171.222 968.368 182.655C708.817 170.084 587.507 192.348 577.14 356.294C566.772 511.744 509.412 605.567 245.624 572.071C-18.1637 538.576 -27.1117 644.782 -13.5621 746.255" stroke="#1E78FD"/>
<path d="M1340.78 61.9923C1306.6 102.471 1179.02 167.846 962.271 182.141C705.021 171.083 582.187 190.798 571.755 354.92C561.324 509.894 505.209 603.342 242.978 570.059C-19.2529 536.775 -27.3173 643.365 -13.5637 744.161" stroke="#1F79FD"/>
<path d="M1334.81 61.4578C1300.26 101.207 1171.86 164.469 956.173 181.628C701.226 172.082 576.866 189.248 566.371 353.548C555.875 508.045 501.007 601.117 240.332 568.046C-20.3419 534.976 -27.523 641.949 -13.5654 742.067" stroke="#217AFD"/>
<path d="M1328.85 60.9232C1293.93 99.9423 1164.7 161.093 950.076 181.115C697.43 173.08 571.546 187.699 560.986 352.175C550.426 506.195 496.804 598.892 237.687 566.034C-21.4311 533.176 -27.7285 640.533 -13.567 739.973" stroke="#227BFD"/>
<path d="M1322.88 60.3883C1287.6 98.6778 1157.55 157.717 943.978 180.601C693.634 174.079 566.224 186.149 555.601 350.802C544.977 504.346 492.601 596.667 235.04 564.021C-22.5207 531.375 -27.9347 639.116 -13.5692 737.878" stroke="#237CFD"/>
<path d="M1316.91 59.8538C1281.27 97.4137 1150.39 154.341 937.88 180.088C689.838 175.078 560.904 184.599 550.216 349.429C539.529 502.496 488.399 594.442 232.394 562.009C-23.6099 529.576 -28.1403 637.7 -13.5708 735.784" stroke="#257CFD"/>
<path d="M1310.95 59.3192C1274.94 96.1494 1143.23 150.965 931.783 179.574C686.042 176.077 555.583 183.05 544.832 348.056C534.08 500.646 484.196 592.218 229.749 559.997C-24.699 527.776 -28.346 636.284 -13.5725 733.69" stroke="#267DFD"/>
<path d="M1304.98 58.7845C1268.61 94.8852 1136.08 147.589 925.686 179.061C682.246 177.076 550.263 181.5 539.447 346.683C528.631 498.797 479.994 589.993 227.103 557.984C-25.7882 525.976 -28.5516 634.868 -13.5741 731.596" stroke="#277EFD"/>
<path d="M1299.02 58.2497C1262.28 93.6207 1128.92 144.212 919.588 178.548C678.451 178.074 544.942 179.95 534.062 345.31C523.183 496.947 475.791 587.768 224.457 555.972C-26.8772 524.176 -28.7572 633.451 -13.5758 729.502" stroke="#297FFD"/>
<path d="M1293.05 57.7151C1255.95 92.3565 1121.76 140.836 913.491 178.034C674.655 179.073 539.621 178.401 528.678 343.937C517.734 495.098 471.589 585.543 221.811 553.959C-27.9664 522.376 -28.9628 632.035 -13.5774 727.408" stroke="#2A7FFD"/>
<path d="M1287.09 57.1805C1249.62 91.0922 1114.6 137.46 907.393 177.521C670.859 180.072 534.301 176.851 523.293 342.564C512.285 493.248 467.386 583.318 219.165 551.947C-29.0555 520.576 -29.1685 630.618 -13.5791 725.314" stroke="#2B80FD"/>
<path d="M1281.12 56.6459C1243.28 89.828 1107.45 134.084 901.296 177.008C667.063 181.071 528.98 175.301 517.908 341.192C506.837 491.398 463.184 581.093 216.52 549.935C-30.1447 518.776 -29.3741 629.202 -13.5807 723.22" stroke="#2D81FD"/>
<path d="M1275.16 56.1111C1236.95 88.5636 1100.29 130.708 895.198 176.494C663.268 182.069 523.659 173.752 512.524 339.818C501.388 489.549 458.981 578.868 213.874 547.922C-31.2338 516.976 -29.5798 627.786 -13.5824 721.126" stroke="#2E82FD"/>
<path d="M1269.19 55.5765C1230.62 87.2993 1093.13 127.332 889.101 175.981C659.472 183.068 518.339 172.202 507.139 338.446C495.939 487.699 454.779 576.643 211.228 545.91C-32.323 515.176 -29.7855 626.369 -13.5841 719.032" stroke="#2F83FE"/>
<path d="M1263.23 55.0419C1224.29 86.0351 1085.98 123.956 883.003 175.467C655.676 184.067 513.018 170.652 501.755 337.073C490.491 485.85 450.576 574.419 208.582 543.897C-33.412 513.376 -29.991 624.953 -13.5857 716.938" stroke="#3183FE"/>
<path d="M1257.26 54.5074C1217.96 84.7709 1078.82 120.58 876.906 174.954C651.881 185.066 507.698 169.103 496.37 335.7C485.042 484 446.374 572.194 205.936 541.885C-34.5012 511.576 -30.1967 623.537 -13.5874 714.844" stroke="#3284FE"/>
<path d="M1251.3 53.9725C1211.63 83.5064 1071.66 117.203 870.808 174.441C648.085 186.065 502.377 167.553 490.985 334.327C479.594 482.15 442.171 569.969 203.291 539.872C-35.5903 509.776 -30.4023 622.12 -13.589 712.75" stroke="#3385FE"/>
<path d="M1245.33 53.4379C1205.3 82.2422 1064.51 113.827 864.711 173.927C644.289 187.063 497.056 166.003 485.601 332.954C474.145 480.301 437.969 567.744 200.645 537.86C-36.6795 507.976 -30.608 620.704 -13.5907 710.656" stroke="#3586FE"/>
<path d="M1239.37 52.9034C1198.97 80.978 1057.35 110.451 858.614 173.414C640.493 188.062 491.736 164.454 480.216 331.581C468.696 478.451 433.766 565.519 197.999 535.848C-37.7686 506.176 -30.8135 619.288 -13.5923 708.562" stroke="#3687FE"/>
<path d="M1233.4 52.3685C1192.64 79.7135 1050.19 107.075 852.516 172.9C636.698 189.061 486.415 162.904 474.831 330.208C463.248 476.601 429.564 563.294 195.353 533.835C-38.8578 504.376 -31.0192 617.871 -13.594 706.467" stroke="#3787FE"/>
<path d="M1227.43 51.8339C1186.3 78.4493 1043.04 103.699 846.419 172.387C632.902 190.06 481.094 161.354 469.447 328.835C457.799 474.752 425.361 561.069 192.707 531.823C-39.9469 502.576 -31.2248 616.455 -13.5956 704.373" stroke="#3988FE"/>
<path d="M1221.47 51.2993C1179.97 77.185 1035.88 100.323 840.321 171.874C629.106 191.059 475.774 159.805 464.062 327.462C452.35 472.902 421.159 558.844 190.061 529.81C-41.036 500.776 -31.4305 615.039 -13.5973 702.279" stroke="#3A89FE"/>
<path d="M1215.5 50.7648C1173.64 75.9208 1028.72 96.9464 834.224 171.361C625.31 192.057 470.453 158.255 458.678 326.09C446.902 471.053 416.956 556.62 187.416 527.798C-42.1251 498.976 -31.6361 613.622 -13.5989 700.185" stroke="#3B8AFE"/>
<path d="M1209.54 50.2299C1167.31 74.6563 1021.57 93.5701 828.126 170.847C621.515 193.056 465.133 156.705 453.293 324.716C441.453 469.203 412.754 554.395 184.77 525.785C-43.2143 497.176 -31.8418 612.206 -13.6006 698.091" stroke="#3D8BFE"/>
<path d="M1203.57 49.6953C1160.98 73.3921 1014.41 90.194 822.029 170.334C617.719 194.055 459.812 155.156 447.908 323.344C436.004 467.353 408.551 552.17 182.124 523.773C-44.3034 495.376 -32.0473 610.79 -13.6022 695.997" stroke="#3E8BFE"/>
<path d="M1197.61 49.1608C1154.65 72.1279 1007.25 86.8179 815.931 169.82C613.923 195.054 454.491 153.606 442.524 321.971C430.556 465.504 404.349 549.945 179.478 521.761C-45.3926 493.576 -32.253 609.373 -13.6039 693.903" stroke="#3F8CFE"/>
<path d="M1191.64 48.6262C1148.32 70.8637 1000.09 83.4418 809.834 169.307C610.127 196.053 449.171 152.056 437.139 320.598C425.107 463.654 400.146 547.72 176.832 519.748C-46.4817 491.776 -32.4587 607.957 -13.6056 691.809" stroke="#408DFE"/>
<path d="M1185.68 48.0913C1141.99 69.5992 992.938 80.0655 803.737 168.793C606.332 197.051 443.85 150.507 431.754 319.225C419.659 461.804 395.944 545.495 174.187 517.736C-47.5708 489.976 -32.6643 606.541 -13.6072 689.715" stroke="#428EFE"/>
<path d="M1179.71 47.5568C1135.66 68.335 985.781 76.6894 797.639 168.28C602.536 198.05 438.529 148.957 426.37 317.852C414.21 459.955 391.741 543.27 171.541 515.723C-48.66 488.176 -32.87 605.124 -13.6089 687.621" stroke="#438FFE"/>
<path d="M1173.75 47.0222C1129.32 67.0708 978.624 73.3133 791.542 167.767C598.74 199.049 433.209 147.407 420.985 316.479C408.761 458.105 387.539 541.045 168.895 513.711C-49.7491 486.376 -33.0755 603.708 -13.6105 685.527" stroke="#448FFE"/>
<path d="M1167.78 46.4875C1122.99 65.8065 971.467 69.9372 785.444 167.254C594.944 200.048 427.888 145.858 415.6 315.106C403.312 456.256 383.336 538.821 166.249 511.698C-50.8385 484.576 -33.2815 602.292 -13.6124 683.433" stroke="#4690FE"/>
<path d="M1161.82 45.9528C1116.66 64.5421 964.31 66.5609 779.346 166.74C591.149 201.046 422.567 144.308 410.216 313.733C397.864 454.406 379.134 536.596 163.603 509.686C-51.9276 482.776 -33.487 600.875 -13.614 681.339" stroke="#4791FE"/>
<path d="M1155.85 45.4182C1110.33 63.2778 957.153 63.1848 773.249 166.227C587.353 202.045 417.247 142.758 404.831 312.36C392.415 452.556 374.931 534.371 160.957 507.673C-53.0168 480.976 -33.6927 599.459 -13.6157 679.245" stroke="#4892FE"/>
<path d="M1149.89 44.8835C1104 62.0136 949.996 59.8087 767.152 165.713C583.557 203.044 411.926 141.209 399.446 310.987C386.967 450.707 370.729 532.146 158.311 505.661C-54.1059 479.176 -33.8983 598.043 -13.6173 677.151" stroke="#4A93FE"/>
<path d="M1143.92 44.3487C1097.67 60.7491 942.839 56.4324 761.054 165.2C579.761 204.043 406.606 139.659 394.062 309.614C381.518 448.857 366.526 529.921 155.666 503.649C-55.195 477.376 -34.104 596.626 -13.619 675.057" stroke="#4B93FE"/>
<path d="M1137.95 43.8141C1091.34 59.4849 935.683 53.0563 754.957 164.686C575.966 205.042 401.285 138.109 388.677 308.242C376.069 447.007 362.324 527.696 153.02 501.636C-56.2842 475.576 -34.3096 595.21 -13.6206 672.963" stroke="#4C94FE"/>
<path d="M1131.99 43.2795C1085.01 58.2207 928.526 49.6802 748.859 164.173C572.17 206.04 395.964 136.56 383.292 306.869C370.621 445.158 358.121 525.471 150.374 499.624C-57.3733 473.776 -34.5152 593.794 -13.6223 670.869" stroke="#4E95FE"/>
<path d="M1126.02 42.7449C1078.68 56.9564 921.369 46.3041 742.762 163.66C568.374 207.039 390.644 135.01 377.908 305.496C365.172 443.308 353.919 523.246 147.728 497.611C-58.4624 471.976 -34.7209 592.377 -13.624 668.775" stroke="#4F96FE"/>
<path d="M1120.06 42.2101C1072.35 55.692 914.212 42.9278 736.664 163.146C564.578 208.038 385.323 133.46 372.523 304.123C359.723 441.458 349.716 521.021 145.082 495.599C-59.5515 470.176 -34.9265 590.961 -13.6256 666.68" stroke="#5097FE"/>
<path d="M1114.09 41.6755C1066.01 54.4278 907.055 39.5517 730.567 162.633C560.783 209.037 380.002 131.911 367.139 302.75C354.275 439.609 345.514 518.797 142.437 493.586C-60.6407 468.376 -35.1322 589.545 -13.6273 664.586" stroke="#5297FE"/>
<path d="M1108.13 41.1409C1059.68 53.1635 899.898 36.1756 724.469 162.12C556.987 210.036 374.682 130.361 361.754 301.377C348.826 437.759 341.311 516.572 139.791 491.574C-61.7298 466.576 -35.3378 588.128 -13.6289 662.492" stroke="#5398FE"/>
<path d="M1102.16 40.6064C1053.35 51.8993 892.741 32.7995 718.372 161.606C553.191 211.034 369.361 128.812 356.369 300.004C343.377 435.91 337.109 514.347 137.145 489.562C-62.8189 464.777 -35.5435 586.712 -13.6306 660.398" stroke="#5499FE"/>
<path d="M1096.2 40.0715C1047.02 50.6348 885.584 29.4232 712.275 161.093C549.396 212.033 364.041 127.262 350.985 298.631C337.929 434.06 332.906 512.122 134.499 487.549C-63.908 462.976 -35.749 585.296 -13.6322 658.304" stroke="#569AFE"/>
<path d="M1090.23 39.5369C1040.69 49.3706 878.427 26.0471 706.177 160.579C545.6 213.032 358.72 125.712 345.6 297.258C332.48 432.21 328.704 509.897 131.853 485.537C-64.9972 461.176 -35.9547 583.879 -13.6339 656.21" stroke="#579BFE"/>
<path d="M1084.27 39.0023C1034.36 48.1064 871.271 22.671 700.08 160.066C541.804 214.031 353.399 124.163 340.215 295.885C327.032 430.361 324.501 507.672 129.208 483.524C-66.0863 459.377 -36.1603 582.463 -13.6355 654.116" stroke="#589BFE"/>
<path d="M1078.3 38.4675C1028.03 46.8419 864.114 19.2946 693.982 159.553C538.008 215.029 348.079 122.613 334.831 294.512C321.583 428.511 320.299 505.447 126.562 481.512C-67.1755 457.576 -36.366 581.047 -13.6372 652.022" stroke="#5A9CFE"/>
<path d="M1072.34 37.9329C1021.7 45.5777 856.957 15.9186 687.884 159.039C534.212 216.028 342.758 121.063 329.446 293.14C316.134 426.661 316.096 503.222 123.916 479.499C-68.2648 455.776 -36.5718 579.63 -13.639 649.928" stroke="#5B9DFE"/>
<path d="M1066.37 37.3983C1015.37 44.3134 849.8 12.5425 681.787 158.526C530.417 217.027 337.437 119.513 324.061 291.767C310.685 424.812 311.894 500.998 121.27 477.487C-69.354 453.977 -36.7775 578.214 -13.6407 647.834" stroke="#5C9EFE"/>
<path d="M1060.4 36.8638C1009.03 43.0493 842.643 9.16639 675.69 158.013C526.621 218.026 332.117 117.964 318.677 290.394C305.237 422.962 307.691 498.773 118.624 475.475C-70.4431 452.177 -36.9831 576.798 -13.6423 645.74" stroke="#5E9EFE"/>
<path d="M1054.44 36.3289C1002.7 41.7848 835.486 5.79007 669.592 157.499C522.825 219.025 326.796 116.414 313.292 289.021C299.788 421.113 303.489 496.548 115.978 473.462C-71.5322 450.376 -37.1887 575.381 -13.644 643.646" stroke="#5F9FFE"/>
<path d="M1048.47 35.7943C996.372 40.5205 828.329 2.41395 663.495 156.986C519.029 220.023 321.475 114.864 307.907 287.648C294.34 419.263 299.286 494.323 113.332 471.45C-72.6214 448.577 -37.3944 573.965 -13.6458 641.552" stroke="#60A0FE"/>
<path d="M1042.51 35.2598C990.041 39.2563 821.172 -0.962132 657.397 156.473C515.234 221.022 316.155 113.315 302.523 286.275C288.891 417.413 295.084 492.098 110.687 469.437C-73.7105 446.777 -37.6 572.549 -13.6473 639.458" stroke="#62A1FE"/>
<path d="M1036.54 34.7252C983.71 37.9921 814.015 -4.33822 651.3 155.959C511.438 222.021 310.834 111.765 297.138 284.902C283.442 415.564 290.881 489.873 108.041 467.425C-74.7996 444.977 -37.8057 571.132 -13.649 637.364" stroke="#63A2FE"/>
<path d="M1030.58 34.1903C977.379 36.7276 806.858 -7.71454 645.202 155.446C507.642 223.02 305.513 110.215 291.754 283.529C277.994 413.714 286.679 487.648 105.395 465.412C-75.8888 443.177 -38.0113 569.716 -13.6506 635.269" stroke="#64A2FE"/>
<path d="M1024.61 33.6558C971.048 35.4634 799.701 -11.0906 639.105 154.932C503.846 224.019 300.193 108.666 286.369 282.156C272.545 411.865 282.476 485.423 102.749 463.4C-76.9779 441.377 -38.217 568.3 -13.6523 633.175" stroke="#65A3FE"/>
<path d="M1018.65 33.1212C964.717 34.1992 792.545 -14.4667 633.007 154.419C500.051 225.017 294.872 107.116 280.984 280.783C267.096 410.015 278.274 483.199 100.103 461.388C-78.067 439.577 -38.4225 566.883 -13.6539 631.081" stroke="#67A4FE"/>
<path d="M1012.68 32.5865C958.386 32.9349 785.388 -17.8428 626.91 153.906C496.255 226.016 289.552 105.567 275.6 279.411C261.648 408.165 274.071 480.974 97.4575 459.375C-79.1562 437.777 -38.6282 565.467 -13.6556 628.987" stroke="#68A5FE"/>
<path d="M1006.72 32.0517C952.055 31.6704 778.231 -21.2192 620.813 153.392C492.459 227.015 284.231 104.017 270.215 278.038C256.199 406.316 269.869 478.749 94.8117 457.363C-80.2453 435.977 -38.8338 564.051 -13.6573 626.893" stroke="#69A6FE"/>
<path d="M1000.75 31.5172C945.724 30.4063 771.074 -24.5952 614.715 152.879C488.664 228.014 278.91 102.467 264.83 276.665C250.751 404.466 265.666 476.524 92.1659 455.35C-81.3344 434.177 -39.0395 562.634 -13.6589 624.799" stroke="#6BA6FE"/>
<path d="M994.786 30.9825C939.392 29.142 763.917 -27.9713 608.618 152.366C484.868 229.013 273.59 100.918 259.446 275.292C245.302 402.616 261.464 474.299 89.5201 453.338C-82.4236 432.377 -39.2451 561.218 -13.6606 622.705" stroke="#6CA7FE"/>
<path d="M988.821 30.4477C933.061 27.8775 756.76 -31.3477 602.52 151.852C481.072 230.011 268.269 99.3678 254.061 273.919C239.853 400.767 257.261 472.074 86.8743 451.325C-83.5127 430.577 -39.4507 559.801 -13.6622 620.611" stroke="#6DA8FE"/>
<path d="M982.856 29.9131C926.73 26.6133 749.603 -34.7238 596.423 151.339C477.276 231.01 262.948 97.8182 248.676 272.546C234.405 398.917 253.059 469.849 84.2285 449.313C-84.6019 428.777 -39.6564 558.385 -13.6639 618.517" stroke="#6FA9FE"/>
<path d="M976.89 29.3785C920.399 25.3491 742.446 -38.0998 590.325 150.825C473.481 232.009 257.628 96.2686 243.292 271.173C228.956 397.068 248.856 467.624 81.5827 447.301C-85.691 426.977 -39.862 556.969 -13.6655 616.423" stroke="#70AAFE"/>
<path d="M970.925 28.8439C914.068 24.0849 735.289 -41.4759 584.228 150.312C469.685 233.008 252.307 94.719 237.907 269.8C223.507 395.218 244.654 465.4 78.9366 445.288C-86.7804 425.177 -40.0679 555.553 -13.6674 614.329" stroke="#71AAFF"/>
<path d="M964.959 28.3091C907.737 22.8204 728.132 -44.8523 578.13 149.798C465.889 234.006 246.986 93.1691 232.522 268.427C218.058 393.368 240.451 463.174 76.2908 443.276C-87.8695 423.377 -40.2735 554.136 -13.6691 612.235" stroke="#73ABFF"/>
<path d="M958.994 27.7745C901.406 21.5562 720.975 -48.2284 572.033 149.285C462.093 235.005 241.666 91.6196 227.138 267.054C212.61 391.519 236.249 460.95 73.645 441.263C-88.9586 421.577 -40.4791 552.72 -13.6707 610.141" stroke="#74ACFF"/>
<path d="M953.029 27.2399C895.075 20.2919 713.819 -51.6045 565.935 148.772C458.297 236.004 236.345 90.0699 221.753 265.681C207.161 389.669 232.046 458.725 70.9992 439.251C-90.0478 419.777 -40.6848 551.304 -13.6724 608.047" stroke="#75ADFF"/>
<path d="M947.063 26.7054C888.744 19.0278 706.662 -54.9805 559.838 148.259C454.502 237.003 231.024 88.5204 216.368 264.309C201.713 387.82 227.844 456.5 68.3533 437.239C-91.1369 417.977 -40.8904 549.887 -13.674 605.953" stroke="#77AEFF"/>
<path d="M941.098 26.1705C882.413 17.7633 699.505 -58.3569 553.74 147.745C450.706 238.002 225.704 86.9705 210.984 262.935C196.264 385.97 223.641 454.275 65.7075 435.226C-92.226 416.177 -41.096 548.471 -13.6757 603.859" stroke="#78AEFF"/>
<path d="M935.133 25.6359C876.082 16.499 692.348 -61.733 547.643 147.232C446.91 239 220.383 85.4209 205.599 261.563C190.815 384.12 219.439 452.05 63.0617 433.214C-93.3152 414.377 -41.3017 547.055 -13.6774 601.765" stroke="#79AFFF"/>
<path d="M929.167 25.1013C869.751 15.2348 685.191 -65.1091 541.545 146.718C443.114 239.999 215.063 83.8713 200.215 260.19C185.367 382.271 215.236 449.825 60.4159 431.201C-94.4043 412.577 -41.5073 545.638 -13.679 599.671" stroke="#7BB0FF"/>
<path d="M923.202 24.5668C863.419 13.9706 678.034 -68.4851 535.448 146.205C439.319 240.998 209.742 82.3217 194.83 258.817C179.918 380.421 211.034 447.601 57.7701 429.189C-95.4934 410.777 -41.713 544.222 -13.6807 597.577" stroke="#7CB1FF"/>
<path d="M917.237 24.0319C857.088 12.7061 670.877 -71.8615 529.351 145.691C435.523 241.997 204.421 80.7719 189.445 257.444C174.469 378.571 206.831 445.375 55.1243 427.176C-96.5826 408.977 -41.9186 542.805 -13.6823 595.482" stroke="#7DB2FF"/>
<path d="M911.271 23.4973C850.757 11.4419 663.72 -75.2376 523.253 145.178C431.727 242.996 199.101 79.2223 184.061 256.071C169.021 376.722 202.629 443.151 52.4785 425.164C-97.6717 407.177 -42.1242 541.389 -13.684 593.388" stroke="#7FB2FF"/>
<path d="M905.306 22.9628C844.426 10.1777 656.564 -78.6137 517.156 144.665C427.932 243.995 193.78 77.6727 178.676 254.698C163.572 374.872 198.426 440.926 49.8327 423.152C-98.7608 405.377 -42.3299 539.973 -13.6856 591.294" stroke="#80B3FF"/>
<path d="M899.341 22.4279C838.095 8.9132 649.407 -81.99 511.058 144.151C424.136 244.993 188.459 76.1228 173.291 253.325C158.124 373.022 194.224 438.701 47.1868 421.139C-99.85 403.577 -42.5355 538.556 -13.6873 589.2" stroke="#81B4FF"/>
<path d="M893.375 21.8933C831.764 7.64895 642.25 -85.3661 504.961 143.638C420.34 245.992 183.139 74.5732 167.907 251.952C152.675 371.173 190.021 436.476 44.541 419.127C-100.939 401.777 -42.7411 537.14 -13.6889 587.106" stroke="#83B5FF"/>
<path d="M887.41 21.3588C825.433 6.38477 635.093 -88.7422 498.863 143.125C416.544 246.991 177.818 73.0237 162.522 250.579C147.226 369.323 185.819 434.251 41.8952 417.114C-102.028 399.977 -42.9467 535.724 -13.6906 585.012" stroke="#84B6FF"/>
<path d="M881.445 20.8242C819.102 5.12052 627.936 -92.1183 492.766 142.611C412.749 247.99 172.498 71.4741 157.138 249.207C141.778 367.474 181.616 432.026 39.2494 415.102C-103.117 398.177 -43.1524 534.308 -13.6922 582.918" stroke="#85B6FF"/>
<path d="M875.479 20.2893C812.771 3.85604 620.779 -95.4946 486.668 142.098C408.953 248.988 167.177 69.9242 151.753 247.833C136.329 365.624 177.414 429.801 36.6036 413.089C-104.207 396.377 -43.358 532.891 -13.6938 580.824" stroke="#86B7FF"/>
<path d="M869.514 19.7548C806.44 2.59185 613.622 -98.8707 480.571 141.584C405.157 249.987 161.856 68.3746 146.368 246.461C130.88 363.774 173.211 427.576 33.9575 411.077C-105.296 394.577 -43.5639 531.475 -13.6957 578.73" stroke="#88B8FF"/>
<path d="M863.548 19.2202C800.109 1.32761 606.465 -102.247 474.473 141.071C401.361 250.986 156.535 66.825 140.983 245.088C125.431 361.925 169.008 425.352 31.3117 409.065C-106.385 392.777 -43.7695 530.059 -13.6974 576.636" stroke="#89B9FF"/>
<path d="M857.583 18.6855C793.777 0.0633642 599.308 -105.623 468.376 140.558C397.565 251.985 151.215 65.2754 135.599 243.715C119.983 360.075 164.806 423.127 28.6659 407.052C-107.474 390.977 -43.9752 528.642 -13.6991 574.542" stroke="#8ABAFF"/>
<path d="M851.618 18.1507C787.446 -1.20112 592.151 -108.999 462.278 140.044C393.77 252.983 145.894 63.7256 130.214 242.342C114.534 358.225 160.603 420.902 26.0201 405.04C-108.563 389.177 -44.1808 527.226 -13.7007 572.448" stroke="#8CBAFF"/>
<path d="M845.652 17.6161C781.115 -2.46531 584.994 -112.375 456.181 139.531C389.974 253.982 140.574 62.176 124.83 240.969C109.086 356.376 156.401 418.677 23.3743 403.027C-109.652 387.377 -44.3865 525.81 -13.7024 570.354" stroke="#8DBBFF"/>
<path d="M839.687 17.0815C774.784 -3.72955 577.838 -115.751 450.083 139.018C386.178 254.981 135.253 60.6264 119.445 239.596C103.637 354.526 152.198 416.452 20.7285 401.015C-110.742 385.577 -44.5921 524.393 -13.704 568.26" stroke="#8EBCFF"/>
<path d="M833.722 16.5469C768.453 -4.9938 570.681 -119.127 443.986 138.504C382.382 255.98 129.932 59.0768 114.06 238.223C98.1883 352.677 147.996 414.227 18.0827 399.002C-111.831 383.778 -44.7977 522.977 -13.7057 566.166" stroke="#90BDFF"/>
<path d="M827.756 16.0121C762.122 -6.25822 563.524 -122.504 437.888 137.991C378.587 256.979 124.612 57.5269 108.676 236.85C92.7397 350.827 143.794 412.002 15.4368 396.99C-112.92 381.977 -45.0034 521.56 -13.7073 564.071" stroke="#91BDFF"/>
</svg>
